<svg id="Capa_1" enable-background="new 0 0 512 512" viewBox="0 0 512 512" xmlns="http://www.w3.org/2000/svg" xmlns:xlink="http://www.w3.org/1999/xlink" width="40" height="40" alt="TechSupport"><linearGradient id="SVGID_1_" gradientUnits="userSpaceOnUse" x1="256" x2="256" y1="512" y2="0"><stop offset="0" stop-color="#ffc2cc"></stop><stop offset="1" stop-color="#fff2f4"></stop></linearGradient><linearGradient id="SVGID_2_" gradientUnits="userSpaceOnUse" x1="256" x2="256" y1="406.989" y2="105"><stop offset="0" stop-color="#ffa68d"></stop><stop offset="1" stop-color="#fd3a84"></stop></linearGradient><g><g><circle cx="256" cy="256" fill="url(#SVGID_1_)" r="256" style="fill: rgb(255, 255, 255);"></circle></g><g><g><path d="m218.011 255.76-29.407 29.407c-22.513-7.999-47.892-2.475-64.863 14.696-18.639 18.63-23.555 47.075-12.229 70.778 2.628 5.475 9.919 6.852 14.314 2.458l29.288-29.288 12.681 12.681-29.287 29.287c-4.395 4.377-3.021 11.715 2.467 14.314 8.494 4.056 17.597 6.028 26.647 6.028 16.19 0 32.171-6.306 44.088-18.231 17.197-17.015 22.756-42.394 14.73-64.889l29.409-29.409zm75.561.106 29.413-29.413c22.478 8.034 47.875 2.475 64.863-14.696 18.639-18.63 23.555-47.075 12.229-70.778-2.663-5.547-9.98-6.792-14.314-2.458l-29.288 29.287-12.681-12.681 29.287-29.288c4.395-4.376 3.021-11.715-2.467-14.314-23.677-11.317-52.148-6.384-70.735 12.203-17.197 17.015-22.756 42.394-14.731 64.889l-29.414 29.413zm102.997 90.412-62.883-62.892c-11.692-11.714-29.519-13.404-43.141-5.395l-99.094-99.102-5.87-41.09c-.417-2.884-2.224-5.394-4.829-6.697l-50.306-25.162c-3.422-1.711-7.556-1.051-10.266 1.668l-12.577 12.577c-2.71 2.71-3.37 6.844-1.668 10.266l25.153 50.315c1.303 2.606 3.804 4.412 6.705 4.829l41.079 5.868 99.1 99.108c-8.005 13.63-6.292 31.439 5.389 43.12l62.9 62.892c13.85 13.867 36.445 13.879 50.306 0 13.906-13.884 13.914-36.412.002-50.305z" fill="url(#SVGID_2_)" style="fill: rgb(0, 0, 0);"></path></g></g></g></svg>